<svg xmlns="http://www.w3.org/2000/svg" width="100" height="100"><g fill="#fff"><path d="M62.924 94.729c-1.732-1.274-1.918-3.188-1.918-3.188l-.65-4.155H39.642l-.652 4.152s-.181 1.916-1.914 3.19c-1.732 1.274-3.099 2.368-1.732 2.554 1.317.178 13.74.016 14.656 0 .918.016 13.338.178 14.654 0 1.366-.184-.002-1.276-1.73-2.553zM26.666 61.538c5.534-.043 6.223-1.377 8.027-6.933 3.327-8.768 18.309 2.296 9.024 6.136-9.285 3.842-22.585.84-17.051.797z"/><path d="M83.41 3.756c-2.688-2.164-7.135-1.098-9.938 2.38l-28.39 40.336c-2.803 3.477-2.789 2.813-.104 4.975 2.685 2.164 2.038 2.319 4.841-1.158l33.376-36.317c2.803-3.48 2.901-8.053.215-10.216zm-7.301 4.828s-.416-.483-1.799-1.589c2.074-3.387 6.15-2.766 6.15-2.766-3.864 2.282-4.351 4.355-4.351 4.355z"/><path d="M96 17.386H83.516l-5.515 6h16v48h-88v-48h51.19l4.227-6H4a4 4 0 00-4 4v58a4 4 0 004 4h92a4 4 0 004-4v-58a4 4 0 00-4-4z"/></g></svg>